<?xml version="1.0" encoding="UTF-8"?>
<svg width="372px" height="374px" viewBox="0 0 372 374" version="1.1" xmlns="http://www.w3.org/2000/svg" xmlns:xlink="http://www.w3.org/1999/xlink">
    <!-- Generator: Sketch 52.2 (67145) - http://www.bohemiancoding.com/sketch -->
    <title>Path 27</title>
    <desc>Created with Sketch.</desc>
    <defs>
        <linearGradient x1="100%" y1="100%" x2="12.8132308%" y2="56.0976329%" id="linearGradient-1">
            <stop stop-color="#5872FF" offset="0%"></stop>
            <stop stop-color="#9013FE" offset="100%"></stop>
        </linearGradient>
    </defs>
    <g id="Page-1" stroke="none" stroke-width="1" fill="none" fill-rule="evenodd">
        <g id="Icon" transform="translate(-160.000000, -145.000000)" fill="url(#linearGradient-1)" fill-rule="nonzero">
            <path d="M240.263454,449.484118 L398.866661,97.4262931 C400.000905,94.9085658 402.961413,93.7870313 405.47914,94.9212757 C406.598679,95.4256314 407.493484,96.3243133 407.992994,97.4460216 L566.020792,452.315461 C567.14414,454.838069 566.009817,457.793701 563.487209,458.917049 C562.527077,459.344608 561.456626,459.458735 560.427931,459.243216 L436.77419,433.336883 C434.952796,432.955288 433.494024,431.593728 432.987923,429.802931 L404.08657,327.537826 C403.936371,327.006358 403.38377,326.697278 402.852301,326.847478 C402.524133,326.940222 402.265852,327.193808 402.167103,327.52022 L371.219009,429.818749 C370.68018,431.599842 369.196836,432.934365 367.368894,433.282589 L245.757877,456.44952 C243.045236,456.966279 240.42729,455.186165 239.910532,452.473523 C239.718305,451.46446 239.841531,450.420676 240.263454,449.484118 Z" id="Path-27" transform="translate(403.156929, 274.248365) rotate(44.816229) translate(-403.156929, -274.248365) "></path>
        </g>
    </g>
</svg>